HIERARCHY
ROOT hip
{
	OFFSET 0.000000 0.000000 0.000000 
	CHANNELS 6 Xposition Yposition Zposition Xrotation Zrotation Yrotation
	JOINT abdomen
	{
		OFFSET 0.000000 3.402643 0.000000 
		CHANNELS 3 Xrotation Zrotation Yrotation
		JOINT chest
		{
			OFFSET 0.000000 8.438565 -0.680529 
			CHANNELS 3 Xrotation Zrotation Yrotation
			JOINT neck
			{
				OFFSET 0.000000 10.207942 -0.272212 
				CHANNELS 3 Xrotation Zrotation Yrotation
				JOINT head
				{
					OFFSET 0.000000 3.130431 0.000000 
					CHANNELS 3 Xrotation Zrotation Yrotation
					End Site
					{
						OFFSET 0.000000 3.130435 0.000000 
					}
				}
			}
			JOINT lCollar
			{
				OFFSET 3.470700 6.669187 -0.816635 
				CHANNELS 3 Yrotation Zrotation Xrotation
				JOINT lShldr
				{
					OFFSET 3.198488 0.000000 0.000000 
					CHANNELS 3 Zrotation Yrotation Xrotation
					JOINT lForeArm
					{
						OFFSET 10.139888 0.000000 0.000000 
						CHANNELS 3 Yrotation Zrotation Xrotation
						JOINT lHand
						{
							OFFSET 8.370511 0.000000 0.000000 
							CHANNELS 3 Zrotation Yrotation Xrotation
							End Site
							{
								OFFSET 4.083176 0.000000 0.000000 
							}
						}
					}
				}
			}
			JOINT rCollar
			{
				OFFSET -3.470700 6.669187 -0.816635 
				CHANNELS 3 Yrotation Zrotation Xrotation
				JOINT rShldr
				{
					OFFSET -3.198488 0.000000 0.000000 
					CHANNELS 3 Zrotation Yrotation Xrotation
					JOINT rForeArm
					{
						OFFSET -10.139888 0.000000 0.000000 
						CHANNELS 3 Yrotation Zrotation Xrotation
						JOINT rHand
						{
							OFFSET -8.370511 0.000000 0.000000 
							CHANNELS 3 Zrotation Yrotation Xrotation
							End Site
							{
								OFFSET -4.083176 0.000000 0.000000 
							}
						}
					}
				}
			}
		}
	}
	JOINT lThigh
	{
		OFFSET 5.308129 -1.633274 1.361059 
		CHANNELS 3 Xrotation Zrotation Yrotation
		JOINT lShin
		{
			OFFSET -2.041588 -20.007561 0.000000 
			CHANNELS 3 Xrotation Zrotation Yrotation
			JOINT lFoot
			{
				OFFSET 0.000000 -19.190928 -1.224953 
				CHANNELS 3 Xrotation Yrotation Zrotation
				End Site
				{
					OFFSET 0.000000 -2.449906 4.627600 
				}
			}
		}
	}
	JOINT rThigh
	{
		OFFSET -5.308129 -1.633274 1.361059 
		CHANNELS 3 Xrotation Zrotation Yrotation
		JOINT rShin
		{
			OFFSET 2.041588 -20.007561 0.000000 
			CHANNELS 3 Xrotation Zrotation Yrotation
			JOINT rFoot
			{
				OFFSET 0.000000 -19.190928 -1.224953 
				CHANNELS 3 Xrotation Yrotation Zrotation
				End Site
				{
					OFFSET 0.000000 -2.449906 4.627600 
				}
			}
		}
	}
}
MOTION
Frames: 13
Frame Time: 0.033333
-39.165382 51.899105 123.252510 -12.236328 -6.718750 -28.095703 38.487022 -9.808608 -7.184600 -18.974611 6.845704 -1.279297 51.063168 8.107644 2.471410 -74.062500 -15.537107 15.683595 2.000000 -2.000000 0.000000 -69.257813 -7.021484 8.358181 -34.934364 -2.433717 -1.359890 25.709278 46.716389 23.710911 -2.000000 2.000000 0.000000 81.396484 -24.384766 18.042845 32.440392 2.268582 -1.213111 -26.463541 -51.731117 32.480152 6.661913 5.190800 5.868318 22.168726 -4.898268 -1.902931 -3.659699 2.546766 2.127709 14.742381 -14.443064 -44.145954 27.586527 3.849347 2.256521 -0.205273 -4.864764 -4.905848 
-39.299854 51.933937 123.364754 -11.865233 -6.718750 -29.044109 36.696041 -10.496167 -5.630799 -18.632813 6.494141 -1.131708 51.063168 8.107644 2.471410 -71.435547 -16.367186 16.494141 2.000000 -2.000000 0.000000 -71.630859 -7.724610 7.703765 -36.512230 -2.152104 -1.562207 24.851315 44.817909 21.496447 -2.000000 2.000000 0.000000 80.478516 -23.652342 23.457031 32.440418 2.258833 -1.213683 -25.655697 -52.344669 34.757740 7.059299 5.166250 6.250540 22.190563 -4.981512 -1.938719 -3.395144 3.125925 2.264397 15.629149 -13.583371 -43.924076 26.022043 4.026227 2.196229 -1.446825 -4.639272 -4.973986 
-39.426327 51.965851 123.411057 -11.689453 -6.894531 -30.079300 35.228638 -11.024560 -4.003204 -18.115236 6.289063 -1.103516 51.063168 8.107644 2.471410 -68.974609 -17.148436 17.304689 2.000000 -2.000000 0.000000 -75.166016 -5.830078 4.920884 -38.805984 -2.208313 -1.519794 21.500521 43.771179 17.447874 -2.000000 2.000000 0.000000 80.283203 -22.841797 24.498161 32.968552 2.250802 -1.243491 -25.367903 -52.043800 34.291294 7.559799 5.533057 6.822264 22.549419 -5.034914 -1.988413 -3.576373 3.372940 1.612856 16.162354 -13.134068 -43.179310 24.441227 4.181006 1.931320 -2.448218 -4.014753 -4.999828 
-39.542736 51.978569 123.400635 -11.523437 -7.070312 -31.124247 33.781540 -11.364751 -2.653751 -17.949221 6.113282 -1.123047 51.063168 8.107644 2.471410 -67.167969 -17.451170 17.958984 2.000000 -2.000000 0.000000 -79.599609 -2.705079 1.630859 -41.429615 -1.879650 -1.754529 15.306428 42.599838 11.090487 -2.000000 2.000000 0.000000 80.078125 -21.201172 24.277346 33.838764 2.233593 -1.283997 -25.353786 -51.183285 32.999767 7.264358 5.429301 7.515607 22.344105 -4.894109 -2.082095 -2.806679 3.915903 1.838780 16.548685 -12.538801 -42.225174 23.388103 4.220433 2.012864 -2.843180 -3.716651 -4.709618 
-39.646999 52.010342 123.345085 -11.171874 -7.255858 -32.540291 32.897213 -11.746268 -1.609917 -17.773436 6.093750 -1.112245 51.063168 8.107644 2.471410 -67.080078 -16.953123 20.449219 2.000000 -2.000000 0.000000 -84.228516 0.371094 -2.822201 -43.019894 -2.111346 -1.701861 9.732233 41.455490 5.981033 -2.000000 2.000000 0.000000 79.658203 -18.994141 22.958984 34.894779 2.216954 -1.333865 -25.543690 -50.377037 31.130753 7.679992 5.934108 8.297773 22.351849 -5.020617 -1.978234 -3.118212 4.048457 1.367898 16.639774 -12.236563 -41.813049 22.519751 4.188746 1.940723 -3.501829 -3.132391 -4.847683 
-39.737377 52.023754 123.252510 -10.830078 -7.451172 -33.955078 32.796223 -11.844806 -1.041916 -17.939455 6.289063 -1.083984 51.063168 8.107644 2.471410 -68.291016 -15.380857 23.417971 2.000000 -2.000000 0.000000 -87.998047 2.636719 -6.064049 -42.667709 -2.031643 -1.677186 3.607631 40.938732 2.292489 -2.000000 2.000000 0.000000 79.560547 -16.816404 21.442488 35.608746 2.199744 -1.373988 -26.419420 -49.129875 29.923731 7.393648 5.835197 9.159267 21.996172 -4.908157 -1.899761 -2.471149 4.607495 1.189230 16.075085 -12.069734 -41.539097 22.308140 3.918375 1.866407 -3.823120 -2.289435 -5.207588 
-39.811665 52.062164 123.134491 -10.468750 -7.626953 -35.538399 33.148457 -11.850494 -1.054484 -18.095703 6.630859 -1.035156 51.063168 8.107644 2.471410 -69.248047 -13.505857 23.349609 2.000000 -2.000000 0.000000 -90.693359 3.789063 -7.636718 -37.222435 -2.410756 -1.468805 -3.895816 42.539383 1.978885 -2.000000 2.000000 0.000000 80.156250 -14.707033 17.712364 35.960590 2.190566 -1.384303 -28.517532 -47.478413 28.851030 7.274633 6.132574 9.714034 22.190901 -4.884770 -1.921610 -2.429575 5.454699 0.687049 15.378098 -12.372924 -40.455891 22.718914 4.240822 1.974939 -3.692327 -1.897112 -5.979907 
-39.867905 52.094452 123.001411 -9.941406 -7.822266 -37.345085 33.499218 -11.837948 -1.060203 -18.437500 6.992188 -0.994905 51.063168 8.107644 2.471410 -69.511726 -11.767576 20.058598 2.000000 -2.000000 0.000000 -92.412109 4.736328 -7.470702 -28.432123 -2.670587 -1.061952 -12.281894 45.571472 2.999136 -2.000000 2.000000 0.000000 81.162109 -12.490233 12.226563 36.136368 2.190566 -1.384303 -32.063160 -45.358536 28.655823 6.837870 6.225315 10.226428 22.174416 -4.963220 -1.933842 -1.931342 6.545472 -0.384661 14.294634 -12.441537 -39.632454 23.373278 3.887068 1.939893 -2.756284 -1.020193 -6.168751 
-39.904240 52.173000 122.862556 -9.599608 -7.988281 -39.298229 34.228199 -11.748885 -1.212518 -18.769531 7.529296 -0.945986 51.063168 8.107644 2.471410 -70.117195 -9.814452 16.259768 2.000000 -2.000000 0.000000 -93.027344 5.625000 -5.380860 -22.447107 -2.592587 -0.733604 -15.576578 48.252518 3.823035 -2.000000 2.000000 0.000000 81.455078 -10.048829 9.695563 36.488731 2.182532 -1.414110 -33.701473 -43.867966 27.851912 6.828664 6.235805 10.741851 21.993490 -4.897635 -2.043766 -1.576656 7.621368 -1.038827 13.160995 -12.187390 -36.974464 23.735016 3.977656 1.993782 -2.304515 -1.620963 -6.238594 
-39.918472 52.247879 122.728317 -9.062499 -8.183594 -41.456470 35.155769 -11.809063 -1.497900 -19.091797 8.046876 -0.888672 51.063168 8.107644 2.471410 -71.103516 -7.998045 11.972656 2.000000 -2.000000 0.000000 -92.197266 6.992187 -0.810547 -21.039076 -2.598313 -0.664811 -10.364747 48.622520 4.790846 -2.000000 2.000000 0.000000 81.132813 -7.470703 10.898437 37.544811 2.254203 -1.468592 -33.303120 -43.551556 27.376637 6.435170 6.181453 10.926480 21.978973 -4.894784 -1.895792 -1.033995 8.859258 -2.205339 11.838096 -11.862158 -33.399170 23.740580 4.217445 1.904131 -1.954065 -2.673490 -5.385240 
-39.908752 52.347370 122.610291 -8.544922 -8.349609 -43.614700 36.068066 -11.691494 -1.672787 -19.609375 8.603517 -0.878906 51.063168 8.107644 2.471410 -72.099609 -6.025390 7.567335 2.000000 -2.000000 0.000000 -90.078125 8.125000 5.058594 -21.391140 -2.599462 -0.684302 -1.286189 48.164127 5.831572 -2.000000 2.000000 0.000000 80.556641 -4.609375 14.012889 38.600285 2.138358 -1.494925 -31.140198 -43.804207 25.729956 6.435148 6.181474 10.926486 21.981968 -4.903265 -2.052828 -0.413890 10.868803 -3.988714 10.540123 -11.286369 -29.974138 23.732174 4.241745 2.034401 -1.543285 -3.572972 -5.177594 
-39.873116 52.476406 122.516548 -7.998046 -8.359375 -46.153763 37.194824 -11.653536 -2.107081 -20.107424 9.326173 -1.005859 51.063168 8.107644 2.471410 -73.476563 -4.228463 3.007775 2.000000 -2.000000 0.000000 -87.675781 8.798828 11.359203 -22.447163 -2.573089 -0.734754 9.266179 47.311005 7.458596 -2.000000 2.000000 0.000000 80.048828 -2.148438 17.900286 39.832134 2.102217 -1.545933 -29.232208 -44.058846 25.022697 6.008834 5.874381 10.351076 21.818460 -4.917263 -2.052009 0.368303 13.069954 -5.910584 9.367908 -10.757313 -26.621719 23.578882 4.258171 2.074002 -1.235835 -4.879488 -4.280472 
-39.809357 52.584919 122.457550 -7.470703 -8.544922 -48.673328 38.363003 -11.507214 -2.719691 -20.615234 9.853516 -1.013954 51.063168 8.107644 2.471410 -74.677734 -2.441406 -1.669922 2.000000 -2.000000 0.000000 -85.820313 9.345703 15.919559 -22.970045 -2.585144 -0.939848 16.408194 46.437000 9.486413 -2.000000 2.000000 0.000000 79.248047 -0.019531 21.142576 41.053516 1.898061 -1.567654 -27.758968 -44.221527 24.159683 5.495397 5.350457 9.052816 22.016565 -4.973019 -2.087760 1.298671 15.741032 -8.788338 7.869142 -9.989326 -23.012493 23.403128 4.194162 1.989986 -0.896968 -5.427734 -3.751773 
